<svg xmlns="http://www.w3.org/2000/svg" viewBox="0 0 600 280" width="600" height="280">
  <!-- Background -->
  <rect width="600" height="280" fill="#1a1a1a"/>

  <!-- === VIM PANEL === -->
  <rect x="0" y="0" width="198" height="280" fill="#0d0d0d"/>
  <!-- Vim label bar -->
  <rect x="0" y="0" width="198" height="28" fill="#1c1c1c"/>
  <text x="99" y="19" font-family="Arial, sans-serif" font-size="13" font-weight="bold" text-anchor="middle" fill="#aaee77">Vim</text>
  <!-- Vim content -->
  <text x="10" y="52" font-family="monospace" font-size="10" fill="#55ff55">function</text>
  <text x="70" y="52" font-family="monospace" font-size="10" fill="#88ffcc"> greet</text>
  <text x="106" y="52" font-family="monospace" font-size="10" fill="#e8e8e8">(name) {</text>
  <text x="10" y="67" font-family="monospace" font-size="10" fill="#e8e8e8">  </text>
  <text x="18" y="67" font-family="monospace" font-size="10" fill="#55ff55">return</text>
  <text x="60" y="67" font-family="monospace" font-size="10" fill="#ffdd55"> `Hello,</text>
  <text x="108" y="67" font-family="monospace" font-size="10" fill="#aaffaa"> ${name}</text>
  <text x="152" y="67" font-family="monospace" font-size="10" fill="#ffdd55">!`</text>
  <text x="10" y="82" font-family="monospace" font-size="10" fill="#e8e8e8">}</text>
  <text x="10" y="97" font-family="monospace" font-size="10" fill="#888888">~</text>
  <text x="10" y="112" font-family="monospace" font-size="10" fill="#888888">~</text>
  <text x="10" y="127" font-family="monospace" font-size="10" fill="#888888">~</text>
  <text x="10" y="142" font-family="monospace" font-size="10" fill="#888888">~</text>
  <text x="10" y="157" font-family="monospace" font-size="10" fill="#888888">~</text>
  <text x="10" y="172" font-family="monospace" font-size="10" fill="#888888">~</text>
  <text x="10" y="187" font-family="monospace" font-size="10" fill="#888888">~</text>
  <text x="10" y="202" font-family="monospace" font-size="10" fill="#888888">~</text>
  <text x="10" y="217" font-family="monospace" font-size="10" fill="#888888">~</text>
  <text x="10" y="232" font-family="monospace" font-size="10" fill="#888888">~</text>
  <!-- Block cursor -->
  <rect x="10" y="243" width="7" height="12" fill="#55ff55"/>
  <!-- Vim status bar -->
  <rect x="0" y="258" width="198" height="22" fill="#2a4a2a"/>
  <text x="8" y="273" font-family="monospace" font-size="10" fill="#aaee77">-- NORMAL --</text>
  <text x="140" y="273" font-family="monospace" font-size="10" fill="#88cc88">5:1</text>

  <!-- Panel divider -->
  <rect x="198" y="0" width="2" height="280" fill="#333333"/>

  <!-- === SUBLIME TEXT PANEL === -->
  <rect x="200" y="0" width="198" height="280" fill="#272822"/>
  <!-- Sublime label bar -->
  <rect x="200" y="0" width="198" height="28" fill="#23241f"/>
  <text x="299" y="19" font-family="Arial, sans-serif" font-size="13" font-weight="bold" text-anchor="middle" fill="#fd971f">Sublime</text>
  <!-- Line numbers -->
  <rect x="200" y="28" width="22" height="252" fill="#1e1f1c"/>
  <text x="218" y="50" font-family="monospace" font-size="10" text-anchor="end" fill="#555">1</text>
  <text x="218" y="65" font-family="monospace" font-size="10" text-anchor="end" fill="#555">2</text>
  <text x="218" y="80" font-family="monospace" font-size="10" text-anchor="end" fill="#555">3</text>
  <text x="218" y="95" font-family="monospace" font-size="10" text-anchor="end" fill="#555">4</text>
  <text x="218" y="110" font-family="monospace" font-size="10" text-anchor="end" fill="#555">5</text>
  <text x="218" y="125" font-family="monospace" font-size="10" text-anchor="end" fill="#555">6</text>
  <text x="218" y="140" font-family="monospace" font-size="10" text-anchor="end" fill="#555">7</text>
  <!-- Sublime content -->
  <text x="228" y="50" font-family="monospace" font-size="10" fill="#66d9e8">class</text>
  <text x="262" y="50" font-family="monospace" font-size="10" fill="#a6e22e"> App</text>
  <text x="282" y="50" font-family="monospace" font-size="10" fill="#f8f8f2"> {</text>
  <text x="228" y="65" font-family="monospace" font-size="10" fill="#66d9e8">  constructor</text>
  <text x="320" y="65" font-family="monospace" font-size="10" fill="#f8f8f2">() {</text>
  <text x="228" y="80" font-family="monospace" font-size="10" fill="#f92672">    this</text>
  <text x="264" y="80" font-family="monospace" font-size="10" fill="#f8f8f2">.</text>
  <text x="270" y="80" font-family="monospace" font-size="10" fill="#a6e22e">name</text>
  <text x="298" y="80" font-family="monospace" font-size="10" fill="#f8f8f2"> =</text>
  <text x="310" y="80" font-family="monospace" font-size="10" fill="#e6db74"> "App"</text>
  <text x="340" y="80" font-family="monospace" font-size="10" fill="#f8f8f2">;</text>
  <text x="228" y="95" font-family="monospace" font-size="10" fill="#f8f8f2">  }</text>
  <text x="228" y="110" font-family="monospace" font-size="10" fill="#a6e22e">  run</text>
  <text x="254" y="110" font-family="monospace" font-size="10" fill="#f8f8f2">() {</text>
  <text x="228" y="125" font-family="monospace" font-size="10" fill="#f8f8f2">    </text>
  <text x="246" y="125" font-family="monospace" font-size="10" fill="#66d9e8">console</text>
  <text x="294" y="125" font-family="monospace" font-size="10" fill="#f8f8f2">.</text>
  <text x="300" y="125" font-family="monospace" font-size="10" fill="#a6e22e">log</text>
  <text x="318" y="125" font-family="monospace" font-size="10" fill="#f8f8f2">(</text>
  <text x="324" y="125" font-family="monospace" font-size="10" fill="#e6db74">"hi"</text>
  <text x="348" y="125" font-family="monospace" font-size="10" fill="#f8f8f2">)</text>
  <text x="228" y="140" font-family="monospace" font-size="10" fill="#f8f8f2">  }</text>
  <!-- Minimap -->
  <rect x="372" y="28" width="26" height="252" fill="#1e1f1c"/>
  <rect x="374" y="35" width="20" height="2" fill="#3a3a38"/>
  <rect x="374" y="42" width="16" height="2" fill="#3a3a38"/>
  <rect x="374" y="49" width="20" height="2" fill="#3a3a38"/>
  <rect x="374" y="56" width="14" height="2" fill="#3a3a38"/>
  <rect x="374" y="63" width="18" height="2" fill="#3a3a38"/>
  <!-- Highlighted line in minimap -->
  <rect x="373" y="47" width="22" height="6" fill="#3c3c3a"/>

  <!-- Panel divider -->
  <rect x="398" y="0" width="2" height="280" fill="#333333"/>

  <!-- === VS CODE PANEL === -->
  <rect x="400" y="0" width="200" height="280" fill="#1e1e1e"/>
  <!-- VS Code label bar -->
  <rect x="400" y="0" width="200" height="28" fill="#323233"/>
  <text x="500" y="19" font-family="Arial, sans-serif" font-size="13" font-weight="bold" text-anchor="middle" fill="#4fc1ff">VS Code</text>
  <!-- Activity bar -->
  <rect x="400" y="28" width="22" height="252" fill="#252526"/>
  <!-- File explorer icon -->
  <rect x="406" y="38" width="10" height="12" rx="1" fill="#858585"/>
  <rect x="404" y="34" width="8" height="10" rx="1" fill="#cccccc"/>
  <!-- Search icon -->
  <circle cx="411" cy="64" r="5" fill="none" stroke="#858585" stroke-width="1.5"/>
  <line x1="415" y1="68" x2="418" y2="71" stroke="#858585" stroke-width="1.5"/>
  <!-- Extensions icon (puzzle piece) -->
  <rect x="407" y="78" width="8" height="8" rx="1" fill="#858585"/>
  <rect x="411" y="76" width="4" height="4" rx="1" fill="#858585"/>
  <!-- Source control icon (branch) -->
  <circle cx="411" cy="100" r="3" fill="none" stroke="#858585" stroke-width="1.5"/>
  <circle cx="411" cy="110" r="3" fill="none" stroke="#858585" stroke-width="1.5"/>
  <line x1="411" y1="103" x2="411" y2="107" stroke="#858585" stroke-width="1.5"/>

  <!-- File tree -->
  <rect x="422" y="28" width="72" height="252" fill="#252526"/>
  <text x="428" y="44" font-family="Arial, sans-serif" font-size="9" fill="#cccccc">EXPLORER</text>
  <text x="428" y="58" font-family="monospace" font-size="9" fill="#cccccc">▾ src</text>
  <text x="435" y="72" font-family="monospace" font-size="9" fill="#4ec9b0">  app.ts</text>
  <text x="435" y="86" font-family="monospace" font-size="9" fill="#cccccc">  index.ts</text>
  <text x="435" y="100" font-family="monospace" font-size="9" fill="#cccccc">  util.ts</text>
  <text x="428" y="114" font-family="monospace" font-size="9" fill="#cccccc">▾ tests</text>
  <text x="435" y="128" font-family="monospace" font-size="9" fill="#cccccc">  app.test</text>
  <text x="428" y="142" font-family="monospace" font-size="9" fill="#cccccc">package.json</text>

  <!-- Editor area -->
  <rect x="494" y="28" width="106" height="252" fill="#1e1e1e"/>
  <!-- Active tab -->
  <rect x="494" y="28" width="60" height="20" fill="#1e1e1e" stroke="#1e1e1e"/>
  <rect x="494" y="28" width="60" height="20" fill="#252526"/>
  <rect x="494" y="46" width="60" height="2" fill="#4fc1ff"/>
  <text x="524" y="42" font-family="monospace" font-size="9" text-anchor="middle" fill="#cccccc">app.ts</text>
  <!-- Code lines -->
  <text x="498" y="65" font-family="monospace" font-size="9" fill="#569cd6">class</text>
  <text x="526" y="65" font-family="monospace" font-size="9" fill="#4ec9b0"> App</text>
  <text x="546" y="65" font-family="monospace" font-size="9" fill="#d4d4d4"> {</text>
  <text x="498" y="79" font-family="monospace" font-size="9" fill="#dcdcaa">  run</text>
  <text x="518" y="79" font-family="monospace" font-size="9" fill="#d4d4d4">(): </text>
  <text x="534" y="79" font-family="monospace" font-size="9" fill="#4ec9b0">void</text>
  <text x="558" y="79" font-family="monospace" font-size="9" fill="#d4d4d4"> {</text>
  <!-- Highlighted line -->
  <rect x="494" y="83" width="106" height="14" fill="#2a2d2e"/>
  <text x="498" y="93" font-family="monospace" font-size="9" fill="#9cdcfe">    this</text>
  <text x="528" y="93" font-family="monospace" font-size="9" fill="#d4d4d4">.</text>
  <text x="533" y="93" font-family="monospace" font-size="9" fill="#dcdcaa">init</text>
  <text x="553" y="93" font-family="monospace" font-size="9" fill="#d4d4d4">()</text>
  <text x="498" y="107" font-family="monospace" font-size="9" fill="#d4d4d4">  }</text>
  <text x="498" y="121" font-family="monospace" font-size="9" fill="#d4d4d4">}</text>

  <!-- AI autocomplete popup -->
  <rect x="494" y="128" width="102" height="70" rx="3" fill="#252526" stroke="#454545" stroke-width="1"/>
  <rect x="494" y="128" width="102" height="14" rx="3" fill="#37373d"/>
  <rect x="494" y="137" width="102" height="5" fill="#37373d"/>
  <text x="498" y="139" font-family="monospace" font-size="8" fill="#4fc1ff">✦ Copilot</text>
  <text x="498" y="153" font-family="monospace" font-size="8" fill="#4ec9b0">  init</text>
  <text x="518" y="153" font-family="monospace" font-size="8" fill="#d4d4d4">() {</text>
  <text x="498" y="165" font-family="monospace" font-size="8" fill="#9cdcfe">    console</text>
  <text x="554" y="165" font-family="monospace" font-size="8" fill="#d4d4d4">.</text>
  <text x="558" y="165" font-family="monospace" font-size="8" fill="#dcdcaa">log</text>
  <text x="498" y="177" font-family="monospace" font-size="8" fill="#ce9178">    "ready"</text>
  <text x="498" y="189" font-family="monospace" font-size="8" fill="#d4d4d4">  }</text>

  <!-- Status bar -->
  <rect x="400" y="263" width="200" height="17" fill="#007acc"/>
  <text x="430" y="275" font-family="Arial, sans-serif" font-size="9" fill="#ffffff">⎇ main</text>
  <text x="490" y="275" font-family="Arial, sans-serif" font-size="9" fill="#ffffff">TypeScript</text>
  <text x="560" y="275" font-family="Arial, sans-serif" font-size="9" fill="#ffffff">✓ 0</text>
</svg>
