<svg xmlns="http://www.w3.org/2000/svg" viewBox="0 0 720 360" width="720" height="360">
  <defs>
    <linearGradient id="bgGrad" x1="0%" y1="0%" x2="100%" y2="100%">
      <stop offset="0%" style="stop-color:#0d1117;stop-opacity:1" />
      <stop offset="100%" style="stop-color:#1a0a0a;stop-opacity:1" />
    </linearGradient>
    <linearGradient id="qGrad" x1="0%" y1="0%" x2="100%" y2="100%">
      <stop offset="0%" style="stop-color:#b92b27;stop-opacity:1" />
      <stop offset="100%" style="stop-color:#ff4444;stop-opacity:1" />
    </linearGradient>
    <linearGradient id="glassGrad" x1="0%" y1="0%" x2="100%" y2="100%">
      <stop offset="0%" style="stop-color:#ffffff;stop-opacity:0.12" />
      <stop offset="100%" style="stop-color:#ffffff;stop-opacity:0.04" />
    </linearGradient>
    <filter id="glow">
      <feGaussianBlur stdDeviation="3" result="coloredBlur"/>
      <feMerge>
        <feMergeNode in="coloredBlur"/>
        <feMergeNode in="SourceGraphic"/>
      </feMerge>
    </filter>
    <filter id="redGlow">
      <feColorMatrix type="matrix" values="1 0 0 0 0.7  0 0 0 0 0  0 0 0 0 0  0 0 0 1 0" result="redShift"/>
      <feGaussianBlur in="redShift" stdDeviation="6" result="coloredBlur"/>
      <feMerge>
        <feMergeNode in="coloredBlur"/>
        <feMergeNode in="SourceGraphic"/>
      </feMerge>
    </filter>
    <filter id="greenGlow">
      <feColorMatrix type="matrix" values="0 0 0 0 0  0 1 0 0 0.5  0 0 0 0 0  0 0 0 1 0" result="greenShift"/>
      <feGaussianBlur in="greenShift" stdDeviation="4" result="coloredBlur"/>
      <feMerge>
        <feMergeNode in="coloredBlur"/>
        <feMergeNode in="SourceGraphic"/>
      </feMerge>
    </filter>
    <filter id="blurEffect">
      <feGaussianBlur stdDeviation="4"/>
    </filter>
    <clipPath id="circleClip">
      <circle cx="220" cy="180" r="90"/>
    </clipPath>
  </defs>

  <!-- Background -->
  <rect width="720" height="360" fill="url(#bgGrad)"/>

  <!-- Subtle grid lines -->
  <g opacity="0.06" stroke="#00ff88" stroke-width="0.5">
    <line x1="0" y1="40" x2="720" y2="40"/>
    <line x1="0" y1="80" x2="720" y2="80"/>
    <line x1="0" y1="120" x2="720" y2="120"/>
    <line x1="0" y1="160" x2="720" y2="160"/>
    <line x1="0" y1="200" x2="720" y2="200"/>
    <line x1="0" y1="240" x2="720" y2="240"/>
    <line x1="0" y1="280" x2="720" y2="280"/>
    <line x1="0" y1="320" x2="720" y2="320"/>
    <line x1="80" y1="0" x2="80" y2="360"/>
    <line x1="160" y1="0" x2="160" y2="360"/>
    <line x1="240" y1="0" x2="240" y2="360"/>
    <line x1="320" y1="0" x2="320" y2="360"/>
    <line x1="400" y1="0" x2="400" y2="360"/>
    <line x1="480" y1="0" x2="480" y2="360"/>
    <line x1="560" y1="0" x2="560" y2="360"/>
    <line x1="640" y1="0" x2="640" y2="360"/>
  </g>

  <!-- Quora Q circle background glow -->
  <circle cx="220" cy="180" r="96" fill="#b92b27" opacity="0.18" filter="url(#redGlow)"/>

  <!-- Quora Q circle -->
  <circle cx="220" cy="180" r="88" fill="url(#qGrad)" filter="url(#redGlow)"/>
  <circle cx="220" cy="180" r="88" fill="url(#glassGrad)"/>

  <!-- Quora Q letter -->
  <text x="220" y="215" text-anchor="middle" font-family="Georgia, serif" font-size="108" font-weight="bold" fill="white" opacity="0.95" filter="url(#glow)">Q</text>

  <!-- Scan lines over Q -->
  <g clip-path="url(#circleClip)" opacity="0.35">
    <line x1="130" y1="130" x2="310" y2="130" stroke="#00ff88" stroke-width="1.5"/>
    <line x1="130" y1="150" x2="310" y2="150" stroke="#00ff88" stroke-width="1"/>
    <line x1="130" y1="170" x2="310" y2="170" stroke="#00ff88" stroke-width="1.5"/>
    <line x1="130" y1="190" x2="310" y2="190" stroke="#00ff88" stroke-width="1"/>
    <line x1="130" y1="210" x2="310" y2="210" stroke="#00ff88" stroke-width="1.5"/>
    <line x1="130" y1="230" x2="310" y2="230" stroke="#00ff88" stroke-width="1"/>
  </g>

  <!-- Magnifying glass handle -->
  <line x1="295" y1="255" x2="340" y2="300" stroke="#aaaaaa" stroke-width="10" stroke-linecap="round"/>

  <!-- Magnifying glass circle -->
  <circle cx="275" cy="235" r="42" fill="none" stroke="#00ff88" stroke-width="4" filter="url(#greenGlow)"/>
  <circle cx="275" cy="235" r="42" fill="#00ff88" opacity="0.04"/>

  <!-- Cross-hair inside magnifier -->
  <line x1="255" y1="235" x2="295" y2="235" stroke="#00ff88" stroke-width="1.5" opacity="0.7"/>
  <line x1="275" y1="215" x2="275" y2="255" stroke="#00ff88" stroke-width="1.5" opacity="0.7"/>

  <!-- Blur overlay shattering on right side -->
  <!-- Blurred blocks (simulated blurred text) -->
  <g opacity="0.35" filter="url(#blurEffect)">
    <rect x="400" y="80" width="180" height="14" rx="3" fill="#aaaaaa"/>
    <rect x="400" y="104" width="220" height="14" rx="3" fill="#888888"/>
    <rect x="400" y="128" width="160" height="14" rx="3" fill="#aaaaaa"/>
    <rect x="400" y="152" width="200" height="14" rx="3" fill="#888888"/>
    <rect x="400" y="176" width="140" height="14" rx="3" fill="#aaaaaa"/>
    <rect x="400" y="200" width="210" height="14" rx="3" fill="#888888"/>
  </g>

  <!-- Clear / unblurred text lines breaking through (right side, lower) -->
  <g filter="url(#greenGlow)" opacity="0.9">
    <text x="400" y="248" font-family="monospace" font-size="11" fill="#00ff88">filter: blur(0) !important;</text>
    <text x="400" y="266" font-family="monospace" font-size="11" fill="#00cc66">overflow: visible;</text>
    <text x="400" y="284" font-family="monospace" font-size="11" fill="#00ff88">display: none; /* modal */</text>
    <text x="400" y="302" font-family="monospace" font-size="11" fill="#00cc66">?share=1</text>
  </g>

  <!-- "Breaking" crack lines through blur area -->
  <g stroke="#00ff88" stroke-width="1.2" opacity="0.55" filter="url(#greenGlow)">
    <polyline points="390,85 420,140 410,175 440,220 425,270"/>
    <polyline points="430,80 450,130 445,160 470,200 460,260"/>
    <polyline points="560,90 550,145 570,180 555,230 575,275"/>
  </g>

  <!-- Data stream particles -->
  <g fill="#00ff88" opacity="0.6" filter="url(#greenGlow)">
    <circle cx="370" cy="90" r="2.5"/>
    <circle cx="378" cy="110" r="2"/>
    <circle cx="363" cy="135" r="3"/>
    <circle cx="380" cy="155" r="2"/>
    <circle cx="368" cy="178" r="2.5"/>
    <circle cx="375" cy="200" r="2"/>
    <circle cx="362" cy="222" r="3"/>
    <circle cx="384" cy="245" r="2"/>
    <circle cx="370" cy="268" r="2.5"/>
    <circle cx="360" cy="292" r="2"/>
  </g>

  <!-- Title text -->
  <text x="360" y="338" text-anchor="middle" font-family="'Segoe UI', Arial, sans-serif" font-size="15" font-weight="bold" fill="#ffffff" opacity="0.85" letter-spacing="2">QUORA UNLOCKED</text>
  <text x="360" y="355" text-anchor="middle" font-family="'Segoe UI', Arial, sans-serif" font-size="10" fill="#888888" letter-spacing="1">BYPASSING LOGIN WALLS AND BLURS · DEVTOOLS</text>
</svg>
